mtllib orange_cone.mtl
usemtl orangeMaterial
v 0 0 0.2
v 0 0 -0.2
v 0.1000 0.0000 -0.2
v 0.0981 0.0195 -0.2
v 0.0924 0.0383 -0.2
v 0.0831 0.0556 -0.2
v 0.0707 0.0707 -0.2
v 0.0556 0.0831 -0.2
v 0.0383 0.0924 -0.2
v 0.0195 0.0981 -0.2
v 0.0000 0.1000 -0.2
v -0.0195 0.0981 -0.2
v -0.0383 0.0924 -0.2
v -0.0556 0.0831 -0.2
v -0.0707 0.0707 -0.2
v -0.0831 0.0556 -0.2
v -0.0924 0.0383 -0.2
v -0.0981 0.0195 -0.2
v -0.1000 0.0000 -0.2
v -0.0981 -0.0195 -0.2
v -0.0924 -0.0383 -0.2
v -0.0831 -0.0556 -0.2
v -0.0707 -0.0707 -0.2
v -0.0556 -0.0831 -0.2
v -0.0383 -0.0924 -0.2
v -0.0195 -0.0981 -0.2
v -0.0000 -0.1000 -0.2
v 0.0195 -0.0981 -0.2
v 0.0383 -0.0924 -0.2
v 0.0556 -0.0831 -0.2
v 0.0707 -0.0707 -0.2
v 0.0831 -0.0556 -0.2
v 0.0924 -0.0383 -0.2
v 0.0981 -0.0195 -0.2
vn 0.0000 0.0000 1.0000
vn 0.0000 0.0000 -1.0000
vn 0.9701 0.0000 0.2425
vn 0.9515 0.1893 0.2425
vn 0.8963 0.3713 0.2425
vn 0.8066 0.5390 0.2425
vn 0.6860 0.6860 0.2425
vn 0.5390 0.8066 0.2425
vn 0.3713 0.8963 0.2425
vn 0.1893 0.9515 0.2425
vn 0.0000 0.9701 0.2425
vn -0.1893 0.9515 0.2425
vn -0.3713 0.8963 0.2425
vn -0.5390 0.8066 0.2425
vn -0.6860 0.6860 0.2425
vn -0.8066 0.5390 0.2425
vn -0.8963 0.3713 0.2425
vn -0.9515 0.1893 0.2425
vn -0.9701 0.0000 0.2425
vn -0.9515 -0.1893 0.2425
vn -0.8963 -0.3713 0.2425
vn -0.8066 -0.5390 0.2425
vn -0.6860 -0.6860 0.2425
vn -0.5390 -0.8066 0.2425
vn -0.3713 -0.8963 0.2425
vn -0.1893 -0.9515 0.2425
vn -0.0000 -0.9701 0.2425
vn 0.1893 -0.9515 0.2425
vn 0.3713 -0.8963 0.2425
vn 0.5390 -0.8066 0.2425
vn 0.6860 -0.6860 0.2425
vn 0.8066 -0.5390 0.2425
vn 0.8963 -0.3713 0.2425
vn 0.9515 -0.1893 0.2425
f 1//1 3//3 4//4
f 2//2 4//2 3//2
f 1//1 4//4 5//5
f 2//2 5//2 4//2
f 1//1 5//5 6//6
f 2//2 6//2 5//2
f 1//1 6//6 7//7
f 2//2 7//2 6//2
f 1//1 7//7 8//8
f 2//2 8//2 7//2
f 1//1 8//8 9//9
f 2//2 9//2 8//2
f 1//1 9//9 10//10
f 2//2 10//2 9//2
f 1//1 10//10 11//11
f 2//2 11//2 10//2
f 1//1 11//11 12//12
f 2//2 12//2 11//2
f 1//1 12//12 13//13
f 2//2 13//2 12//2
f 1//1 13//13 14//14
f 2//2 14//2 13//2
f 1//1 14//14 15//15
f 2//2 15//2 14//2
f 1//1 15//15 16//16
f 2//2 16//2 15//2
f 1//1 16//16 17//17
f 2//2 17//2 16//2
f 1//1 17//17 18//18
f 2//2 18//2 17//2
f 1//1 18//18 19//19
f 2//2 19//2 18//2
f 1//1 19//19 20//20
f 2//2 20//2 19//2
f 1//1 20//20 21//21
f 2//2 21//2 20//2
f 1//1 21//21 22//22
f 2//2 22//2 21//2
f 1//1 22//22 23//23
f 2//2 23//2 22//2
f 1//1 23//23 24//24
f 2//2 24//2 23//2
f 1//1 24//24 25//25
f 2//2 25//2 24//2
f 1//1 25//25 26//26
f 2//2 26//2 25//2
f 1//1 26//26 27//27
f 2//2 27//2 26//2
f 1//1 27//27 28//28
f 2//2 28//2 27//2
f 1//1 28//28 29//29
f 2//2 29//2 28//2
f 1//1 29//29 30//30
f 2//2 30//2 29//2
f 1//1 30//30 31//31
f 2//2 31//2 30//2
f 1//1 31//31 32//32
f 2//2 32//2 31//2
f 1//1 32//32 33//33
f 2//2 33//2 32//2
f 1//1 33//33 34//34
f 2//2 34//2 33//2
f 1//1 34//34 3//3
f 2//2 3//2 34//2
